# xmcd CD database file generated by OrangeCD 5.2
#
# Track frame offsets:
#	150
#	15183
#	31904
#	46710
#	60118
#	78356
#	94434
#	109293
#	125607
#	143045
#	162767
#	175390
#	190949
#	216316
#	238997
#	256064
#	266073
#	278160
#	292534
#
# Disc length: 4100 seconds
#
# Revision: 0
# Processed by: cddbd v1.5.1PL0 Copyright (c) Steve Scherf et al.
# Submitted via: OrangeCD 5.2
#
DISCID=02100213
DTITLE=Various Artist - French Country Music Awards 2004
DYEAR=1900
DGENRE=Country
TTITLE0=Phil Edwards - Still in Love with You
TTITLE1=Ange Amadeï - Sur la Route
TTITLE2=Vicky Layne - Mama He'll Do
TTITLE3=Turquoise - Are You Missing Me
TTITLE4=Linda Jacob and The Roadriders - Globe Trotter
TTITLE5=Jackson MacKay - I Feel So Good
TTITLE6=Lionel Wendling - Monsieur Vert
TTITLE7=Texas Sidestep - Mercury Blues
TTITLE8=Liane Edwards - Different Skies
TTITLE9=The Phenix Country Band - Fly
TTITLE10=Mary and Co. - Photo
TTITLE11=Zip Code 2025 - 18H18
TTITLE12=Youpi Whaou - Born To Be Blue
TTITLE13=Eddie and Ninie - Les Bar-Jo's
TTITLE14=Tahiana - How Does it Feel to You
TTITLE15=Hillboys and Girls - Heartland
TTITLE16=Mart O'Pickers - Family Man
TTITLE17=Bluegrass Factory - Kentucky Song
TTITLE18=Mahogany Spirit - Let's Go Country
EXTD=
EXTT0=
EXTT1=
EXTT2=
EXTT3=
EXTT4=
EXTT5=
EXTT6=
EXTT7=
EXTT8=
EXTT9=
EXTT10=
EXTT11=
EXTT12=
EXTT13=
EXTT14=
EXTT15=
EXTT16=
EXTT17=
EXTT18=
PLAYORDER=
